<?xml version="1.0" encoding="UTF-8"?>
<!-- Generated by Pixelmator Pro 3.2.2 -->
<svg width="35" height="35" viewBox="0 0 35 35" xmlns="http://www.w3.org/2000/svg" xmlns:xlink="http://www.w3.org/1999/xlink">
    <g id="color">
        <path id="Path" fill="#f05138" stroke="none" d="M 35 9.618908 C 35 9.257797 35 8.929506 35 8.568384 C 34.967171 7.813311 34.934338 7.025415 34.803024 6.270351 C 34.671711 5.515276 34.441902 4.793043 34.080784 4.103632 C 33.719666 3.414219 33.292885 2.79047 32.734791 2.265202 C 32.176701 1.707115 31.55295 1.280331 30.896368 0.919209 C 30.206957 0.558098 29.484718 0.328289 28.729649 0.196976 C 27.974581 0.065662 27.219511 0 26.431616 0 C 26.070494 0 25.742203 0 25.381086 0 C 24.954308 0 24.56036 0 24.133581 0 L 14.908616 0 L 11.100449 0 C 10.673671 0 10.279722 0 9.852944 0 C 9.491822 0 9.163532 0 8.802415 0 C 8.605439 0 8.408467 0 8.244323 0.032829 C 7.686224 0.065662 7.095305 0.098484 6.537208 0.196976 C 5.979115 0.29546 5.421022 0.459606 4.895755 0.656582 C 4.73161 0.722244 4.534638 0.820724 4.370493 0.886387 C 3.845227 1.149017 3.385622 1.477306 2.926012 1.838428 C 2.794698 1.969742 2.630553 2.101059 2.499238 2.232372 C 1.94114 2.79047 1.514367 3.414219 1.153245 4.070801 C 0.792124 4.760212 0.562321 5.482456 0.431007 6.23752 C 0.299688 6.992584 0.266862 7.747658 0.234031 8.535553 C 0.234031 8.896675 0.234031 9.224966 0.234031 9.586088 C 0.234031 10.012861 0.234031 10.406813 0.234031 10.833588 L 0.234031 16.51301 L 0.234031 23.866726 C 0.234031 24.293499 0.234031 24.68745 0.234031 25.114225 C 0.234031 25.475346 0.234031 25.803638 0.234031 26.164759 C 0.266862 26.919823 0.299688 27.707718 0.431007 28.462791 C 0.562321 29.217857 0.792124 29.9401 1.153245 30.629501 C 1.514367 31.318914 1.94114 31.942663 2.499238 32.46793 C 3.057331 33.026028 3.681081 33.452801 4.337662 33.813923 C 5.027074 34.175045 5.749312 34.404842 6.504382 34.536167 C 7.259451 34.66748 8.014515 34.733131 8.802415 34.733131 C 9.163532 34.733131 9.491822 34.733131 9.852944 34.733131 C 10.279722 34.733131 10.673671 34.733131 11.100449 34.733131 L 24.133581 34.733131 C 24.56036 34.733131 24.954308 34.733131 25.381086 34.733131 C 25.742203 34.733131 26.070494 34.733131 26.431616 34.733131 C 27.186684 34.700314 27.974581 34.66748 28.729649 34.536167 C 29.484718 34.404842 30.206957 34.175045 30.896368 33.813923 C 31.585775 33.452801 32.20953 33.026028 32.734791 32.46793 C 33.292885 31.909843 33.719666 31.286083 34.080784 30.629501 C 34.441902 29.9401 34.671711 29.217857 34.803024 28.462791 C 34.934338 27.707718 35 26.952654 35 26.164759 C 35 25.803638 35 25.475346 35 25.114225 C 35 24.68745 35 24.293499 35 23.866726 L 35 10.833588 C 35 10.439634 35 10.045692 35 9.618908 Z"/>
        <path id="path1" fill="#ffffff" stroke="none" d="M 27.744778 21.470198 C 27.777609 21.338884 27.810434 21.207569 27.843266 21.076256 C 29.287743 15.331171 25.775034 8.502722 19.800148 4.924358 C 22.426472 8.469891 23.575489 12.7705 22.557787 16.51301 C 22.459297 16.841299 22.360815 17.16959 22.229496 17.497881 C 22.098181 17.399397 21.934036 17.300915 21.704233 17.202421 C 21.704233 17.202421 15.762174 13.525574 9.327677 7.058247 C 9.163532 6.8941 12.774728 12.212412 16.845533 16.51301 C 14.908616 15.429655 9.557485 11.522999 6.14326 8.437071 C 6.570039 9.126472 7.062475 9.815886 7.587741 10.439634 C 10.411036 14.050831 14.120721 18.482752 18.552643 21.896982 C 15.433883 23.801064 11.034792 23.965208 6.668527 21.896982 C 5.585167 21.404545 4.567464 20.780787 3.615424 20.091385 C 5.453853 23.045998 8.309979 25.606661 11.789856 27.116798 C 15.926319 28.889566 20.06278 28.791082 23.115879 27.14963 L 23.115879 27.14963 C 23.115879 27.14963 23.14871 27.14963 23.14871 27.116798 C 23.280024 27.051136 23.411343 26.952654 23.542658 26.886992 C 25.019964 26.131927 27.908922 25.376854 29.484718 28.397129 C 29.944323 29.086542 30.765049 25.147057 27.744778 21.470198 C 27.744778 21.470198 27.744778 21.470198 27.744778 21.470198 Z"/>
    </g>
</svg>
